<svg width="53" height="32" viewBox="0 0 53 32" fill="none" xmlns="http://www.w3.org/2000/svg">
<path d="M42.4445 5.2085C42.4445 5.2085 40.9191 0.15117 38.2805 0H38.1018C37.4765 0.343569 36.3634 1.17501 35.4495 3.42195C35.0922 4.29461 34.1783 6.73395 33.0308 9.83981C36.1847 18.3878 41.1115 31.9931 41.1115 31.9931H52.2019L42.4445 5.2085Z" clipRule="evenodd" fill="currentColor" fillRule="evenodd" />
<path d="M13.9145 0C11.2759 0.15117 9.74361 5.2085 9.74361 5.2085L0 32H11.0904C11.0904 32 20.2499 6.68585 21.583 3.42195C22.5038 1.17501 23.7131 0.295469 24.2422 0H13.9214H13.9145Z" clipRule="evenodd" fill="currentColor" fillRule="evenodd" />
<path d="M26.9083 0C24.2697 0.15117 22.7374 5.2085 22.7374 5.2085L12.9869 32H24.0773C24.0773 32 33.2438 6.68585 34.5768 3.42195C35.4976 1.17501 36.6107 0.343569 37.2292 0H26.9083Z" clipRule="evenodd" fill="currentColor" fillRule="evenodd"/>
<path d="M41.4481 31.5121H51.4941L41.9909 5.3803C41.5855 4.04038 40.1357 0.597822 38.2529 0.494751H38.2323C37.3115 1.04446 36.5076 2.12327 35.896 3.61436C35.5799 4.38395 34.7897 6.47972 33.546 9.85357C36.3976 17.5839 40.6854 29.4232 41.4481 31.519V31.5121Z" clipRule="evenodd" fill="currentColor" fillRule="evenodd"/>
<path d="M22.8405 0.487915H13.9146C12.0524 0.590986 10.6095 4.03355 10.2178 5.35285L0.700928 31.5122H10.7469C11.8188 28.5506 19.8927 6.27361 21.1295 3.23647C21.6586 1.94465 22.2771 1.07198 22.8405 0.487915Z" clipRule="evenodd" fill="currentColor" fillRule="evenodd"/>
<path d="M35.8137 0.487915H26.9084C25.0462 0.590986 23.6032 4.03355 23.2116 5.35285L13.6947 31.5122H23.7407C24.8126 28.5506 32.8865 6.27361 34.1233 3.23647C34.5906 2.08895 35.1609 1.16818 35.8205 0.487915H35.8137Z" clipRule="evenodd" fill="currentColor" fillRule="evenodd"/>
</svg>
